<?xml version="1.0" encoding="UTF-8" standalone="no"?>
<!DOCTYPE svg PUBLIC "-//W3C//DTD SVG 1.1//EN" "http://www.w3.org/Graphics/SVG/1.1/DTD/svg11.dtd">
<svg width="100%" height="100%" viewBox="0 0 3235 1185" version="1.1" xmlns="http://www.w3.org/2000/svg" xmlns:xlink="http://www.w3.org/1999/xlink" xml:space="preserve" xmlns:serif="http://www.serif.com/" style="fill-rule:evenodd;clip-rule:evenodd;stroke-linejoin:round;stroke-miterlimit:2;">
    <g transform="matrix(1,0,0,1,-26.172975,-22.69357)">
        <g transform="matrix(5.091094,0,0,5.091094,-9409.627783,-6426.162804)">
            <g transform="matrix(1,0,0,1,1602.165817,1111.250365)">
                <g transform="matrix(30.445,0,0,30.445,887.613947,373.450468)">
                </g>
                <text x="505.947px" y="373.45px" style="font-family:'Poppins-SemiBold', 'Poppins';font-weight:600;font-size:30.445px;fill:rgb(0,115,255);">L<tspan x="520.043px 538.949px 559.713px 580.476px 587.97px 613.787px 622.373px 634.307px 654.553px 662.047px 670.632px 690.878px 711.642px 730.548px 751.312px 770.218px 790.464px 811.227px 830.134px 850.38px 868.829px " y="373.45px 373.45px 373.45px 373.45px 373.45px 373.45px 373.45px 373.45px 373.45px 373.45px 373.45px 373.45px 373.45px 373.45px 373.45px 373.45px 373.45px 373.45px 373.45px 373.45px 373.45px ">ead with Independence</tspan></text>
            </g>
            <g transform="matrix(4.166667,0,0,4.166667,2105.924583,1353.832083)">
                <path d="M0,0.152C0,-4.282 2.673,-5.753 5.127,-5.753C6.667,-5.753 8.139,-5.145 9.138,-3.554L7.429,-2.336C6.735,-3.232 5.99,-3.723 5.06,-3.723C3.52,-3.723 2.487,-2.421 2.487,-0.001C2.487,2.402 3.334,3.908 5.212,3.908C6.126,3.908 6.955,3.468 7.733,2.757L8.985,4.331C7.817,5.415 6.599,5.905 5.093,5.905C1.98,5.905 0,3.959 0,0.152" style="fill:rgb(66,85,99);fill-rule:nonzero;"/>
            </g>
            <g transform="matrix(4.166667,0,0,4.166667,2168.805417,1353.194167)">
                <path d="M0,3.148L0,-1.1C-0.237,-1.201 -0.626,-1.286 -1.066,-1.286C-2.454,-1.286 -2.927,0.153 -2.927,1.811C-2.927,3.165 -2.623,4.4 -1.404,4.4C-0.508,4.4 0,3.774 0,3.148M-5.263,1.947C-5.263,-1.032 -3.74,-2.978 -0.778,-2.978C-0.203,-2.978 1.066,-2.826 2.335,-2.352L2.335,4.146L2.504,5.855L0.49,5.855L0.355,4.992L0.287,4.975C-0.169,5.653 -0.896,6.126 -1.946,6.126C-4.517,6.126 -5.263,4.146 -5.263,1.947" style="fill:rgb(66,85,99);fill-rule:nonzero;"/>
            </g>
            <g transform="matrix(4.166667,0,0,4.166667,2186.212083,1376.532917)">
                <path d="M0,-8.325L1.963,-8.325L2.132,-7.31C2.707,-8.105 3.554,-8.579 4.687,-8.579C6.363,-8.579 7.378,-7.632 7.378,-5.618L7.378,0.254L5.026,0.254L5.026,-5.144C5.026,-6.075 4.873,-6.752 3.959,-6.752C3.096,-6.752 2.504,-6.058 2.504,-5.246L2.504,0.254L0.169,0.254L0.169,-6.735L0,-8.325Z" style="fill:rgb(66,85,99);fill-rule:nonzero;"/>
            </g>
            <g transform="matrix(4.166667,0,0,4.166667,0,203.995833)">
                <path d="M536.297,281.663L533.911,281.663L533.911,273.084L536.297,273.084L536.297,281.663ZM533.792,270.63C533.792,269.953 534.3,269.378 535.095,269.378C535.874,269.378 536.415,269.936 536.415,270.63C536.415,271.324 535.874,271.882 535.095,271.882C534.3,271.882 533.792,271.358 533.792,270.63" style="fill:rgb(66,85,99);fill-rule:nonzero;"/>
            </g>
            <g transform="matrix(4.166667,0,0,4.166667,2241.969167,1376.532917)">
                <path d="M0,-8.325L1.963,-8.325L2.132,-7.31C2.708,-8.105 3.553,-8.579 4.687,-8.579C6.362,-8.579 7.378,-7.632 7.378,-5.618L7.378,0.254L5.026,0.254L5.026,-5.144C5.026,-6.075 4.873,-6.752 3.959,-6.752C3.096,-6.752 2.505,-6.058 2.505,-5.246L2.505,0.254L0.169,0.254L0.169,-6.735L0,-8.325Z" style="fill:rgb(66,85,99);fill-rule:nonzero;"/>
            </g>
            <g transform="matrix(4.166667,0,0,4.166667,2298.504583,1368.073333)">
                <path d="M0,-4.011C0,-4.552 -0.338,-4.874 -0.863,-4.874C-1.996,-4.874 -2.589,-3.825 -2.64,-2.606C-1.726,-2.623 0,-2.91 0,-4.011M-4.958,-1.794C-4.958,-4.282 -3.503,-6.549 -0.728,-6.549C0.981,-6.549 2.081,-5.686 2.081,-4.062C2.081,-1.523 -0.728,-1.083 -2.555,-1.016C-2.454,-0.102 -1.895,0.761 -0.626,0.761C0.287,0.761 1.032,0.355 1.489,0.034L2.166,1.59C1.98,1.759 0.795,2.538 -0.931,2.538C-3.79,2.538 -4.958,0.744 -4.958,-1.794" style="fill:rgb(66,85,99);fill-rule:nonzero;"/>
            </g>
            <g transform="matrix(4.166667,0,0,4.166667,2105.924583,1411.545)">
                <path d="M0,0.152C0,-4.282 2.673,-5.753 5.127,-5.753C6.667,-5.753 8.139,-5.144 9.138,-3.554L7.428,-2.335C6.735,-3.232 5.99,-3.723 5.06,-3.723C3.52,-3.723 2.487,-2.42 2.487,-0.001C2.487,2.402 3.333,3.908 5.211,3.908C6.126,3.908 6.955,3.468 7.733,2.757L8.985,4.331C7.817,5.415 6.599,5.905 5.093,5.905C1.98,5.905 0,3.959 0,0.152" style="fill:rgb(66,85,99);fill-rule:nonzero;"/>
            </g>
            <g transform="matrix(4.166667,0,0,4.166667,2168.4525,1417.251667)">
                <path d="M0,0.085C0,-1.726 -0.372,-2.775 -1.489,-2.775C-2.521,-2.775 -2.995,-1.726 -2.995,-0.202C-2.995,1.321 -2.792,2.86 -1.506,2.86C-0.44,2.86 0,1.811 0,0.085M-5.415,0.068C-5.415,-3.468 -3.164,-4.501 -1.371,-4.501C-0.084,-4.501 2.419,-4.111 2.419,-0.185C2.419,3.046 0.643,4.586 -1.641,4.586C-3.959,4.586 -5.415,3.131 -5.415,0.068" style="fill:rgb(66,85,99);fill-rule:nonzero;"/>
            </g>
            <g transform="matrix(4.166667,0,0,4.166667,2182.47625,1434.245833)">
                <path d="M0,-8.325L1.946,-8.325L2.132,-7.327C2.673,-8.105 3.452,-8.579 4.535,-8.579C5.567,-8.579 6.362,-8.19 6.836,-7.327C7.344,-8.123 8.156,-8.579 9.239,-8.579C10.931,-8.579 11.929,-7.598 11.929,-5.584L11.929,0.254L9.561,0.254L9.561,-5.144C9.561,-6.041 9.425,-6.752 8.494,-6.752C7.682,-6.752 7.225,-6.091 7.225,-5.279L7.225,0.254L4.856,0.254L4.856,-5.144C4.856,-5.99 4.772,-6.752 3.807,-6.752C2.961,-6.752 2.521,-6.075 2.521,-5.229L2.521,0.254L0.169,0.254L0.169,-6.735L0,-8.325Z" style="fill:rgb(66,85,99);fill-rule:nonzero;"/>
            </g>
            <g transform="matrix(4.166667,0,0,4.166667,2261.287917,1430.859583)">
                <path d="M0,-3.147C0,-4.721 -0.389,-5.905 -1.743,-5.905C-2.149,-5.905 -2.555,-5.82 -2.843,-5.736L-2.843,-0.863C-2.538,-0.626 -1.996,-0.524 -1.54,-0.524C-0.49,-0.524 0,-1.472 0,-3.147M-1.641,-7.767C1.066,-7.767 2.386,-6.244 2.386,-3.282C2.386,-0.287 0.981,1.32 -1.286,1.32C-1.861,1.32 -2.454,1.151 -2.843,0.948L-2.843,4.62L-5.195,4.62L-5.195,-7.174C-3.875,-7.597 -2.505,-7.767 -1.641,-7.767" style="fill:rgb(66,85,99);fill-rule:nonzero;"/>
            </g>
            <g transform="matrix(4.166667,0,0,4.166667,2297.590417,1410.90875)">
                <path d="M0,3.147L0,-1.1C-0.237,-1.202 -0.626,-1.286 -1.066,-1.286C-2.454,-1.286 -2.928,0.152 -2.928,1.81C-2.928,3.164 -2.622,4.399 -1.404,4.399C-0.508,4.399 0,3.774 0,3.147M-5.263,1.946C-5.263,-1.032 -3.74,-2.978 -0.778,-2.978C-0.203,-2.978 1.066,-2.826 2.335,-2.352L2.335,4.146L2.505,5.854L0.491,5.854L0.355,4.992L0.287,4.975C-0.169,5.652 -0.897,6.125 -1.946,6.125C-4.518,6.125 -5.263,4.146 -5.263,1.946" style="fill:rgb(66,85,99);fill-rule:nonzero;"/>
            </g>
            <g transform="matrix(4.166667,0,0,4.166667,2314.99625,1434.245833)">
                <path d="M0,-8.325L1.963,-8.325L2.132,-7.31C2.707,-8.105 3.553,-8.579 4.687,-8.579C6.362,-8.579 7.378,-7.632 7.378,-5.618L7.378,0.254L5.026,0.254L5.026,-5.144C5.026,-6.075 4.873,-6.752 3.959,-6.752C3.096,-6.752 2.504,-6.058 2.504,-5.246L2.504,0.254L0.169,0.254L0.169,-6.735L0,-8.325Z" style="fill:rgb(66,85,99);fill-rule:nonzero;"/>
            </g>
            <g transform="matrix(4.166667,0,0,4.166667,0,319.420833)">
                <path d="M567.205,267.812L564.819,267.812L564.819,259.233L567.205,259.233L567.205,267.812ZM564.701,256.779C564.701,256.102 565.208,255.527 566.003,255.527C566.782,255.527 567.323,256.085 567.323,256.779C567.323,257.473 566.782,258.032 566.003,258.032C565.208,258.032 564.701,257.507 564.701,256.779" style="fill:rgb(66,85,99);fill-rule:nonzero;"/>
            </g>
            <g transform="matrix(4.166667,0,0,4.166667,2392.185833,1417.251667)">
                <path d="M0,0.085C0,-1.726 -0.372,-2.775 -1.489,-2.775C-2.521,-2.775 -2.995,-1.726 -2.995,-0.202C-2.995,1.321 -2.792,2.86 -1.506,2.86C-0.44,2.86 0,1.811 0,0.085M-5.415,0.068C-5.415,-3.468 -3.164,-4.501 -1.371,-4.501C-0.084,-4.501 2.419,-4.111 2.419,-0.185C2.419,3.046 0.643,4.586 -1.641,4.586C-3.959,4.586 -5.415,3.131 -5.415,0.068" style="fill:rgb(66,85,99);fill-rule:nonzero;"/>
            </g>
            <g transform="matrix(4.166667,0,0,4.166667,2407.12625,1434.245833)">
                <path d="M0,-8.325L1.963,-8.325L2.132,-7.31C2.707,-8.105 3.553,-8.579 4.687,-8.579C6.362,-8.579 7.378,-7.632 7.378,-5.618L7.378,0.254L5.026,0.254L5.026,-5.144C5.026,-6.075 4.873,-6.752 3.96,-6.752C3.096,-6.752 2.505,-6.058 2.505,-5.246L2.505,0.254L0.169,0.254L0.169,-6.735L0,-8.325Z" style="fill:rgb(66,85,99);fill-rule:nonzero;"/>
            </g>
            <g transform="matrix(4.166667,0,0,4.166667,2442.86375,1402.233333)">
                <path d="M0,7.294L0.643,5.619C1.235,5.991 2.284,6.464 3.147,6.464C3.723,6.464 4.196,6.177 4.196,5.568C4.196,4.908 3.621,4.705 2.91,4.485C1.658,4.113 0.254,3.69 0.254,1.912C0.254,0.103 1.76,-0.896 3.469,-0.896C4.772,-0.896 5.922,-0.389 6.684,0.339L5.584,1.71C4.89,1.151 4.196,0.813 3.57,0.813C3.012,0.813 2.555,1.101 2.555,1.676C2.555,2.302 3.13,2.539 3.908,2.793C5.144,3.199 6.531,3.655 6.531,5.399C6.531,7.226 5.195,8.19 3.232,8.19C1.726,8.19 0.474,7.649 0,7.294" style="fill:rgb(66,85,99);fill-rule:nonzero;"/>
            </g>
            <g transform="matrix(4.166667,0,0,4.166667,2477.8875,1396.4225)">
                <path d="M0,-0.791C0,-0.98 -0.14,-1.013 -0.33,-1.013L-0.478,-1.013L-0.478,-0.518L-0.297,-0.518C-0.099,-0.518 0,-0.61 0,-0.791M-0.19,-1.285C0.156,-1.285 0.371,-1.12 0.371,-0.824C0.371,-0.569 0.238,-0.42 0.091,-0.346C0.148,-0.321 0.181,-0.264 0.197,-0.223L0.502,0.453L0.115,0.453L-0.148,-0.124C-0.181,-0.206 -0.214,-0.238 -0.28,-0.238L-0.478,-0.238L-0.478,0.453L-0.823,0.453L-0.823,-1.285L-0.19,-1.285ZM0.972,-0.396C0.972,-1.111 0.445,-1.623 -0.272,-1.623C-0.996,-1.623 -1.474,-1.111 -1.474,-0.396C-1.474,0.338 -0.964,0.84 -0.272,0.84C0.453,0.84 0.972,0.354 0.972,-0.396M-1.878,-0.396C-1.878,-1.302 -1.219,-1.977 -0.272,-1.977C0.7,-1.977 1.375,-1.302 1.375,-0.412C1.375,0.519 0.7,1.186 -0.272,1.186C-1.268,1.186 -1.878,0.519 -1.878,-0.396" style="fill:rgb(66,85,99);fill-rule:nonzero;"/>
            </g>
            <g transform="matrix(4.166667,0,0,4.166667,2001.97375,1287.849583)">
                <path d="M0,1.072C0.51,-0.533 2.324,-2.607 4.134,-2.595C4.221,-2.595 4.316,-2.693 4.278,-2.783C4.172,-3.036 4.051,-3.238 3.92,-3.405C5.994,-3.467 8.43,-3.167 8.777,-0.748C9.041,1.084 5.643,3.118 4.289,3.703C2.305,4.559 -0.935,4.013 0,1.072M2.54,6.162C5.497,6.023 9.703,2.962 10.289,-0.051C11.15,-4.47 5.75,-5.243 2.671,-5.051C1.947,-5.006 1.703,-4.241 1.931,-3.747C0.393,-3.037 -1.286,-0.823 -1.777,0.197C-3.29,3.34 -0.742,6.315 2.54,6.162" style="fill:rgb(0,115,255);fill-rule:nonzero;"/>
            </g>
            <g transform="matrix(4.166667,0,0,4.166667,2011.560417,1383.175417)">
                <path d="M0,12.716C-2.435,7.172 -4.127,-0.761 -2.765,-6.506C-2.116,-9.24 -1.141,-12.767 1.335,-13.396C3.783,-14.018 5.004,-12.905 6.305,-10.675C9.344,-5.465 7.383,4.825 5.299,9.972C4.474,12.009 3.14,15.266 2.268,16.736C1.334,15.574 0.618,14.123 0,12.716M-30.741,4.211C-31.07,3.173 -31.327,2.114 -31.483,1.058C-31.672,-0.22 -31.737,-1.311 -31.723,-2.269C-31.038,-2.486 -30.32,-2.66 -29.586,-2.792C-29.358,-2.394 -29.156,-2.004 -28.972,-1.612C-28.682,-1.003 -28.447,-0.389 -28.23,0.236C-28.031,0.869 -27.846,1.511 -27.68,2.183C-27.602,2.452 -27.547,2.728 -27.474,3.007C-29.013,3.427 -30.126,3.909 -30.741,4.211M15.046,23.293L15.046,23.279C15.044,23.263 15.04,23.248 15.038,23.233C15.033,23.202 15.029,23.171 15.021,23.141C15.016,23.12 15.007,23.101 15,23.081C14.992,23.058 14.986,23.034 14.976,23.012C14.864,22.761 14.629,22.581 14.272,22.614C13.365,22.691 12.493,22.664 11.653,22.555C8.229,22.108 5.358,20.216 3.057,17.665C4.878,15.021 8.586,4.803 8.981,-0.238C8.984,-0.286 9.357,-2.588 9.225,-4.639C9.05,-7.374 8.408,-9.689 7.768,-11.034C6.278,-14.168 4.208,-15.692 1.231,-15.128C-0.813,-14.74 -1.602,-13.967 -2.84,-12.112C-6.745,-6.258 -5.42,5.155 -2.827,11.073C-1.782,13.458 -0.661,16.08 1.236,18.36C1.236,18.36 -0.613,20.85 -1.963,22.077C-3.314,23.304 -7.24,27.704 -11.562,26.665C-11.567,26.664 -11.573,26.665 -11.579,26.664C-15.547,26.246 -17.758,22.749 -18.339,21.692C-13.238,20.127 -10.581,15.338 -11.405,9.905C-11.859,6.914 -13.394,4.2 -15.249,1.855C-17.317,-0.761 -20.293,-2.692 -21.624,-5.812C-21.923,-6.514 -23.111,-6.013 -22.861,-5.291C-22.649,-4.678 -22.381,-4.103 -22.075,-3.553C-25.17,-4.442 -28.62,-4.119 -31.683,-3.198C-31.507,-5.627 -30.829,-7.138 -30.582,-8.787C-30.58,-8.82 -30.487,-9.105 -30.726,-9.196C-30.931,-9.274 -31.073,-8.933 -31.073,-8.933C-33.038,-4.777 -33.575,-1.361 -33.291,1.214C-33.089,3.056 -32.647,4.761 -32.019,6.364C-32.703,6.291 -33.408,6.364 -34.083,6.595C-35.839,7.197 -37.066,8.636 -37.624,10.382C-38.834,14.171 -36.573,17.95 -34.087,20.654C-34.076,20.666 -34.065,20.679 -34.054,20.691C-32.852,21.994 -31.446,23.08 -29.924,23.978C-29.802,24.045 -29.682,24.116 -29.563,24.187C-29.362,24.3 -29.161,24.412 -28.957,24.519C-27.681,25.184 -26.587,23.336 -27.826,22.585C-28.43,22.218 -29.005,21.808 -29.565,21.381C-30.537,20.638 -31.452,19.82 -32.295,18.932C-33.605,17.553 -34.834,15.933 -35.357,14.078C-35.788,12.546 -35.667,10.687 -34.51,9.486C-33.491,8.428 -31.757,8.272 -30.57,9.142C-29.733,9.758 -28.844,8.599 -29.249,7.82C-29.695,6.957 -30.092,6.05 -30.431,5.12C-29.23,4.598 -23.651,2.498 -15.645,4.145C-15.101,4.852 -14.605,5.595 -14.194,6.401C-11.242,12.198 -13.533,19.496 -20.113,21.326C-20.33,21.369 -21.338,21.621 -20.573,22.461C-18.622,24.712 -15.796,27.295 -11.631,27.821C-6.984,28.408 -2.788,24.482 -1.192,22.778C-0.383,21.977 1.272,19.965 1.981,19.062C3.607,20.833 5.156,22.216 7.31,23.182C9.496,24.191 12.428,24.706 14.487,24.203C14.903,24.102 15.078,23.665 15.046,23.293" style="fill:rgb(0,115,255);fill-rule:nonzero;"/>
            </g>
            <g transform="matrix(4.166667,0,0,4.166667,1894.735,1301.28125)">
                <path d="M0,8.425C0.328,6.511 0.779,4.419 2.839,3.645C4.662,2.961 7.926,3.607 9.818,3.441C11.213,3.318 14.198,1.306 15.302,2.213C17.665,4.158 14.731,6.778 13.275,7.922C12.88,8.233 12.942,9.079 13.533,9.081C19.494,9.101 18.933,-0.676 14.305,-0.048C13.705,0.034 12.965,0.337 12.486,0.715C10.799,2.047 9.408,1.695 7.54,1.536C6.129,1.416 2.796,1.745 1.54,2.482C-0.436,3.641 -1.834,6.44 -0.535,8.544C-0.399,8.765 -0.042,8.667 0,8.425" style="fill:rgb(0,115,255);fill-rule:nonzero;"/>
            </g>
            <g transform="matrix(4.166667,0,0,4.166667,1932.525833,1338.839583)">
                <path d="M0,3.949C-0.435,3.629 -0.904,3.349 -1.354,3.051C-2.407,2.352 -3.46,1.654 -4.513,0.955C-5.549,0.269 -6.133,1.133 -5.061,1.951C-4.137,2.659 -2.23,4.507 -0.462,5.883C0.44,6.585 1.604,6.309 2.075,5.173C2.925,3.122 2.215,-1.305 0.129,-2.442C-0.227,-2.636 -0.823,-2.378 -0.755,-1.911C-0.626,-1.026 -0.105,-0.342 0.163,0.514C0.473,1.506 0.596,2.585 0.501,3.624C0.427,4.442 0.589,4.382 0,3.949" style="fill:rgb(0,115,255);fill-rule:nonzero;"/>
            </g>
        </g>
    </g>
</svg>
